PathFileType   4   (X/Y/Z)
DataRate	CameraRate	NumFrames	NumMarkers	Units	OrigDataRate	OrigDataStartFrame	OrigNumFrames
120.0	120.0	10	37	mm	120.0	1	155
Frame#	Time	midhip	hip_r	hip_l	knee_r	knee_l	ankle_r	ankle_l	midasis	asis_r	asis_l	psis_r	psis_l	epicondLat_r	epicondLat_l	epicondMed_r	epicondMed_l	malleolusLat_r	malleolusLat_l	malleolusMedv_r	malleolusMedv_l	neck	subclavicle_r	subclavicle_l	sternalnotch	xyphoidprocess	thighwand_r	thighwand_l	upperleg1_r	upperleg1_l	upperleg2_r	upperleg2_l	shankwand_r	shankwand_l	lowerleg1_r	lowerleg1_l	toe_r	toe_l
 	 	X1	Y1	Z1	X2	Y2	Z2	X3	Y3	Z3	X4	Y4	Z4	X5	Y5	Z5	X6	Y6	Z6	X7	Y7	Z7	X8	Y8	Z8	X9	Y9	Z9	X10	Y10	Z10	X11	Y11	Z11	X12	Y12	Z12	X13	Y13	Z13	X14	Y14	Z14	X15	Y15	Z15	X16	Y16	Z16	X17	Y17	Z17	X18	Y18	Z18	X19	Y19	Z19	X20	Y20	Z20	X21	Y21	Z21	X22	Y22	Z22	X23	Y23	Z23	X24	Y24	Z24	X25	Y25	Z25	X26	Y26	Z26	X27	Y27	Z27	X28	Y28	Z28	X29	Y29	Z29	X30	Y30	Z30	X31	Y31	Z31	X32	Y32	Z32	X33	Y33	Z33	X34	Y34	Z34	X35	Y35	Z35	X36	Y36	Z36	X37	Y37	Z37

	1	0.24167	705.429	834.705	-203.734	708.947	819.440	-141.987	700.253	811.055	-258.837	795.810	457.276	-159.581	722.774	441.441	-300.865	780.166	62.631	-178.948	421.159	179.429	-298.223	762.505	896.612	-204.568	761.493	902.446	-104.454	763.517	890.778	-304.682	604.210	923.191	-178.569	603.001	919.994	-232.748	808.119	457.624	-105.977	725.749	447.768	-354.914	780.398	451.312	-201.938	728.651	422.161	-254.201	773.686	61.027	-141.031	419.525	180.922	-336.660	799.946	77.351	-207.171	442.871	174.565	-274.686	638.615	1334.934	-195.715	737.584	1262.834	-141.669	740.772	1263.041	-248.027	724.173	1273.831	-200.456	780.032	1107.410	-198.059	891.974	658.706	-160.749	854.202	610.577	-280.776	810.634	685.680	-103.903	777.901	653.206	-330.869	821.592	601.035	-106.371	783.322	565.869	-333.183	779.478	176.494	-64.646	479.042	292.105	-394.886	781.244	185.588	-105.687	494.420	283.215	-355.327	895.133	39.920	-145.185	460.006	62.121	-309.875
	2	0.25000	711.073	835.112	-202.082	714.671	819.943	-140.380	705.973	811.457	-257.222	798.537	457.259	-158.479	734.798	442.166	-300.606	780.224	62.695	-178.882	430.636	183.905	-297.767	768.104	897.148	-203.027	767.097	903.059	-102.873	769.112	891.237	-303.181	609.761	923.543	-177.100	608.548	920.231	-231.271	810.713	457.398	-104.844	737.571	448.730	-354.638	782.812	452.232	-202.053	739.951	422.817	-254.070	773.632	61.042	-140.986	429.123	185.264	-336.213	799.876	77.370	-207.075	452.464	178.930	-274.329	644.694	1335.387	-194.461	743.715	1263.160	-140.689	746.568	1263.455	-247.098	730.147	1274.225	-199.439	785.816	1107.738	-197.367	896.404	658.013	-158.998	863.156	613.252	-280.170	815.224	685.559	-102.278	786.260	654.683	-330.046	825.291	600.850	-105.309	792.724	567.457	-332.669	780.014	176.275	-64.306	490.049	295.479	-394.609	781.813	185.509	-105.327	505.327	286.593	-355.214	895.110	39.866	-145.072	468.646	65.992	-309.940
	3	0.25833	716.577	835.409	-200.448	720.319	820.432	-138.824	711.617	811.879	-255.661	801.140	457.222	-157.434	746.577	443.023	-300.281	780.289	62.763	-178.820	440.286	188.028	-297.285	773.627	897.689	-201.515	772.625	903.647	-101.320	774.628	891.731	-301.710	615.234	923.894	-175.698	614.043	920.462	-229.938	813.241	457.165	-103.782	749.325	449.816	-354.286	785.129	453.038	-202.335	752.964	423.000	-253.536	773.580	61.064	-140.947	438.953	189.176	-335.745	799.866	77.513	-207.025	462.366	182.956	-273.973	650.717	1335.882	-193.266	749.738	1263.492	-139.770	752.239	1263.884	-246.205	736.021	1274.623	-198.461	791.406	1108.059	-196.743	900.682	657.309	-157.459	871.877	615.997	-279.077	819.650	685.360	-100.917	793.745	656.093	-328.852	828.844	600.556	-104.477	802.243	569.098	-331.748	780.505	176.087	-64.006	501.266	298.458	-394.424	782.354	185.474	-105.040	516.331	289.735	-355.163	895.090	39.822	-144.974	478.342	69.783	-309.982
	4	0.26667	721.989	835.675	-198.866	725.890	820.909	-137.330	717.191	812.331	-254.165	803.656	457.165	-156.464	758.082	444.004	-299.908	780.359	62.828	-178.763	450.218	191.661	-296.777	779.082	898.235	-200.032	778.079	904.204	-99.798	780.086	892.266	-300.267	620.643	924.259	-174.370	619.494	920.706	-228.736	815.723	456.922	-102.805	760.981	451.029	-353.876	788.011	453.446	-201.867	767.440	422.907	-252.957	773.530	61.091	-140.914	449.085	192.566	-335.250	800.001	77.569	-206.967	472.675	186.476	-273.565	656.672	1336.392	-192.096	755.658	1263.837	-138.884	757.846	1264.346	-245.374	741.810	1275.026	-197.513	796.910	1108.402	-196.181	904.826	656.591	-156.100	880.381	618.783	-277.513	823.790	685.283	-99.643	800.436	657.516	-327.228	832.483	600.318	-103.469	811.819	570.961	-330.505	780.969	175.922	-63.738	512.638	301.044	-394.268	782.903	185.471	-104.806	527.411	292.618	-355.094	895.076	39.781	-144.888	489.000	73.339	-309.935
	5	0.27500	727.319	835.942	-197.388	731.376	821.372	-135.909	722.698	812.819	-252.747	806.115	457.091	-155.582	769.304	445.098	-299.499	780.431	62.887	-178.711	460.521	194.704	-296.245	784.480	898.782	-198.583	783.461	904.722	-98.313	785.500	892.842	-298.853	625.996	924.650	-173.122	624.906	920.990	-227.638	818.168	456.666	-101.921	772.518	452.361	-353.417	790.390	453.496	-200.368	779.839	423.520	-252.584	773.484	61.120	-140.884	459.575	195.370	-334.728	800.122	77.543	-206.910	483.388	189.475	-273.075	662.532	1336.879	-190.863	761.500	1264.163	-137.987	763.423	1264.767	-244.538	747.523	1275.435	-196.589	802.380	1108.721	-195.557	908.855	655.856	-154.880	888.686	621.590	-275.533	828.039	685.200	-98.447	808.020	659.148	-325.432	836.087	600.109	-102.187	821.360	572.999	-329.072	781.418	175.774	-63.493	524.128	303.241	-394.088	783.590	185.430	-104.553	538.611	295.084	-354.897	895.067	39.740	-144.808	500.512	76.542	-309.756
	6	0.28333	732.614	836.270	-196.035	736.775	821.823	-134.571	728.135	813.347	-251.418	808.532	457.004	-154.793	780.259	446.287	-299.055	780.505	62.935	-178.659	471.246	197.100	-295.690	789.827	899.325	-197.175	788.776	905.193	-96.875	790.879	893.457	-297.474	631.302	925.077	-171.956	630.279	921.333	-226.615	820.572	456.397	-101.130	783.919	453.797	-352.911	792.614	453.459	-198.981	790.672	424.632	-251.999	773.440	61.148	-140.855	470.461	197.553	-334.179	800.050	77.626	-206.900	494.432	191.882	-272.521	668.269	1337.421	-189.585	767.293	1264.484	-137.073	768.885	1265.153	-243.720	753.164	1275.860	-195.682	807.720	1109.007	-194.914	912.767	655.091	-153.749	896.800	624.401	-273.222	832.308	684.931	-97.358	816.309	660.937	-323.632	839.648	599.815	-101.018	830.939	574.973	-327.433	781.856	175.637	-63.262	535.715	305.044	-393.851	784.295	185.363	-104.228	549.993	297.058	-354.480	895.063	39.697	-144.728	512.770	79.320	-309.430
	7	0.29167	737.955	836.769	-194.820	742.087	822.263	-133.324	733.503	813.915	-250.184	810.912	456.910	-154.087	790.973	447.556	-298.571	780.581	62.972	-178.604	482.405	198.835	-295.109	795.129	899.862	-195.817	794.030	905.617	-95.495	796.227	894.107	-296.139	636.565	925.548	-170.873	635.613	921.748	-225.649	822.919	456.122	-100.420	795.172	455.317	-352.352	795.602	453.442	-198.307	802.553	425.609	-251.463	773.397	61.174	-140.823	481.751	199.111	-333.603	800.036	77.808	-206.869	505.780	193.674	-271.943	673.929	1337.951	-188.334	773.032	1264.848	-136.170	774.312	1265.542	-242.917	758.742	1276.306	-194.784	813.075	1109.330	-194.217	916.558	654.284	-152.662	904.717	627.209	-270.687	836.255	684.604	-96.358	824.321	662.756	-321.792	843.219	599.462	-100.123	840.797	576.997	-325.726	782.278	175.511	-63.036	547.392	306.445	-393.543	784.851	185.273	-103.916	561.580	298.643	-353.895	895.064	39.652	-144.644	525.682	81.640	-308.976
	8	0.30000	743.258	837.344	-193.715	747.315	822.693	-132.174	738.800	814.518	-249.051	813.244	456.815	-153.447	801.484	448.889	-298.035	780.659	63.002	-178.543	493.977	199.930	-294.498	800.387	900.389	-194.521	799.230	905.995	-94.182	801.545	894.783	-294.859	641.791	926.066	-169.872	640.910	922.236	-224.730	825.187	455.847	-99.768	806.270	456.903	-351.730	798.375	453.480	-197.761	814.607	426.893	-250.747	773.353	61.200	-140.786	493.431	200.057	-332.994	800.153	77.925	-206.800	517.429	194.982	-271.306	679.570	1338.489	-187.192	778.700	1265.309	-135.312	779.694	1265.978	-242.127	764.260	1276.778	-193.886	818.413	1109.734	-193.462	920.213	653.420	-151.576	912.431	630.009	-268.042	840.065	684.287	-95.462	832.223	664.688	-320.002	846.566	599.142	-99.304	850.659	579.353	-323.926	782.677	175.395	-62.814	559.160	307.429	-393.164	785.386	185.157	-103.843	573.296	299.862	-353.339	895.070	39.605	-144.553	539.180	83.505	-308.435
	9	0.30833	748.446	837.884	-192.684	752.461	823.114	-131.124	744.026	815.150	-248.022	815.511	456.727	-152.852	811.832	450.278	-297.436	780.739	63.027	-178.473	505.921	200.419	-293.848	805.604	900.902	-193.294	804.377	906.330	-92.945	806.831	895.474	-293.644	646.981	926.631	-168.951	646.169	922.793	-223.864	827.349	455.580	-99.153	817.210	458.536	-351.038	800.499	453.585	-197.093	824.897	428.586	-250.041	773.308	61.228	-140.739	505.473	200.415	-332.345	800.191	77.846	-206.736	529.436	195.779	-270.606	685.176	1339.138	-186.085	784.311	1265.877	-134.451	784.939	1266.472	-241.324	769.719	1277.279	-192.988	823.576	1110.199	-192.658	923.725	652.487	-150.460	919.958	632.804	-265.396	843.889	683.964	-94.573	840.357	666.782	-318.270	849.715	598.804	-98.466	860.032	581.819	-322.133	783.048	175.290	-62.595	571.020	307.981	-392.716	785.970	185.109	-103.828	585.084	300.651	-352.938	895.081	39.557	-144.454	553.227	84.935	-307.868
	10	0.31667	753.558	838.425	-191.743	757.526	823.526	-130.174	749.184	815.803	-247.095	817.698	456.648	-152.292	822.046	451.715	-296.763	780.818	63.052	-178.393	518.196	200.339	-293.147	810.779	901.399	-192.143	809.471	906.627	-91.788	812.088	896.172	-292.499	652.134	927.239	-168.108	651.390	923.405	-223.060	829.383	455.326	-98.564	827.987	460.203	-350.269	802.643	453.577	-196.335	831.564	430.490	-249.135	773.263	61.259	-140.685	517.843	200.212	-331.645	800.222	77.782	-206.639	541.772	196.020	-269.858	690.732	1339.799	-184.947	789.896	1266.482	-133.547	790.171	1266.959	-240.457	775.125	1277.802	-192.087	828.748	1110.685	-191.730	927.090	651.477	-149.296	927.327	635.594	-262.838	847.550	683.608	-93.656	848.473	668.888	-316.555	852.768	598.385	-97.578	867.990	583.737	-320.412	783.393	175.198	-62.382	582.964	308.096	-392.198	786.408	185.144	-103.499	597.059	300.915	-352.544	895.097	39.509	-144.347	567.800	85.962	-307.337
